<?xml version="1.0" encoding="UTF-8"?>
<svg width="600px" height="600px" viewBox="0 0 600 600" version="1.1" xmlns="http://www.w3.org/2000/svg" xmlns:xlink="http://www.w3.org/1999/xlink">
    <title>drivers/YOUR_DRIVER_ID/assets/icon</title>
    <g id="/drivers/YOUR_DRIVER_ID/assets/icon" stroke="none" stroke-width="1" fill="none" fill-rule="evenodd">
        <rect id="Rectangle" stroke="#484848" stroke-width="12" x="6.68874172" y="161" width="586.778146" height="315" rx="17"></rect>
        <rect id="Rectangle" stroke="#484848" stroke-width="12" stroke-linejoin="bevel" x="143.615894" y="249.201987" width="399.546358" height="30.3178808"></rect>
        <rect id="Rectangle" stroke="#484848" stroke-width="12" stroke-linejoin="bevel" x="45.0827815" y="249.201987" width="59.5529801" height="30.3178808"></rect>
        <g id="noun-airco-4147367" transform="translate(450.000000, 353.000000)" fill="#484848" fill-rule="nonzero" stroke="#484848" stroke-width="6">
            <path d="M39.9441881,0.443035457 L40.2891965,0.732518333 L48.4985253,8.96503917 L56.7078542,0.732518333 C57.6809647,-0.244055568 59.2599365,-0.244055568 60.2330826,0.732518333 C61.0983903,1.60027053 61.1950638,2.9471668 60.52175,3.92163355 L60.2330826,4.26761657 L50.986681,13.53514 L50.9845944,45.6709357 L78.7437431,29.6030379 L82.1256261,16.9431844 C82.4421079,15.7580564 83.5578337,15.0005009 84.7354028,15.0981797 L85.1784914,15.1756067 C86.3609753,15.4929825 87.1157022,16.6118603 87.0190108,17.7927562 L86.9418019,18.2370966 L83.9361783,29.4830179 L95.1504185,32.4957041 C96.4803789,32.8535443 97.2697936,34.2242263 96.9137094,35.5578547 C96.5965332,36.7429827 95.4815019,37.5005382 94.3032205,37.4028594 L93.8601318,37.3254324 L81.2339839,33.9289952 L53.4783966,49.995643 L81.2375453,66.0678266 L93.8610222,62.6756752 C95.043506,62.3576029 96.2544452,62.9477116 96.7594484,64.0198393 L96.9145623,64.4432511 C97.2310441,65.6290755 96.6425978,66.8434357 95.5741849,67.3498656 L95.1512714,67.5054177 L83.9370312,70.5181039 L86.9426549,81.7640253 C87.2987925,83.0977429 86.5093066,84.4684964 85.179364,84.8256402 C83.9975746,85.1437124 82.7859409,84.5536038 82.28165,83.481476 L82.1265361,83.0580643 L78.7467898,70.3941036 L50.9858604,54.3204915 L50.987947,86.4598586 L60.2343487,95.7323821 C61.2081715,96.7082417 61.2081715,98.2916742 60.2343487,99.2675696 C59.3690411,100.135322 58.0259392,100.232268 57.0542176,99.5570525 L56.7092093,99.2675696 L48.4998804,91.0350487 L40.2905516,99.2675696 C39.3174411,100.244143 37.7384692,100.244143 36.7653231,99.2675696 C35.9000155,98.3998174 35.8033419,97.0529211 36.4766557,96.0784544 L36.7653231,95.7324713 L46.0067388,86.4599479 L46.0046521,54.3205808 L18.2579682,70.3913358 L14.8739483,83.0581535 C14.5178106,84.3918712 13.1502955,85.1835161 11.8209583,84.8257294 C10.6384745,84.5083536 9.88374761,83.3894758 9.98043898,82.20858 L10.0576478,81.7642395 L13.0632715,70.5183182 L1.84903127,67.505632 C0.51907085,67.1477918 -0.270343852,65.7771098 0.0857403714,64.4434814 C0.402916558,63.2583534 1.51794791,62.5007979 2.69622931,62.5984767 L3.13931796,62.6759037 L15.7676027,66.0659123 L43.5178479,49.9958716 L15.7693834,33.9313667 L3.13896182,37.325661 C1.8090014,37.6835012 0.442109505,36.8917849 0.0854376544,35.5580851 C-0.231044063,34.3722606 0.357402167,33.1579004 1.4258151,32.6514706 L1.84872855,32.4959184 L13.0629688,29.4832322 L10.0573451,18.2373109 C9.70120748,16.9035932 10.4906934,15.5328397 11.820636,15.175696 C13.0024254,14.8576237 14.2140591,15.4477324 14.71835,16.5198601 L14.8734639,16.9432719 L18.2603329,29.6058039 L46.0052361,45.6654874 L46.0073229,13.535049 L36.7659072,4.2675255 C35.9005995,3.3997733 35.803926,2.05287703 36.4772398,1.07841028 L36.7659072,0.732427261 C37.6312148,-0.135324935 38.9743167,-0.232271609 39.9460383,0.442944386 L39.9441881,0.443035457 Z" id="Path"></path>
        </g>
    </g>
</svg>