<!DOCTYPE svg PUBLIC "-//W3C//DTD SVG 20010904//EN" "http://www.w3.org/TR/2001/REC-SVG-20010904/DTD/svg10.dtd">
<svg version="1.0" xmlns="http://www.w3.org/2000/svg" width="1200px" height="1147px" viewBox="0 0 12000 11470" preserveAspectRatio="xMidYMid meet">
<g id="layer101" fill="#388175" stroke="none">
 <path d="M8375 10364 c-157 -15 -312 -50 -490 -109 -290 -97 -533 -256 -778 -509 -292 -301 -521 -711 -628 -1125 -32 -122 -69 -334 -69 -390 0 -38 179 -771 192 -785 4 -6 8 3 8 21 0 41 44 257 80 398 64 246 178 552 276 741 301 582 685 885 1199 944 406 47 703 -170 806 -590 21 -82 18 -336 -5 -430 -103 -436 -379 -801 -791 -1045 -336 -199 -719 -335 -1337 -475 -71 -16 -98 -27 -98 -38 0 -8 10 -48 22 -88 l23 -74 65 0 c70 0 318 23 440 40 235 33 448 77 692 144 464 126 847 351 1188 695 190 191 320 368 426 581 213 425 239 848 80 1271 -71 188 -184 372 -296 479 -188 180 -347 268 -580 321 -83 19 -330 32 -425 23z"/>
 <path d="M3445 10345 c-126 -19 -224 -48 -335 -102 -123 -59 -197 -113 -291 -210 -162 -167 -244 -334 -301 -608 -19 -93 -23 -142 -23 -310 0 -129 5 -225 14 -270 83 -430 288 -798 635 -1139 280 -275 417 -376 711 -526 372 -190 807 -312 1286 -360 64 -7 123 -10 131 -8 13 2 9 19 -21 87 l-36 85 -170 48 c-559 160 -945 409 -1337 864 -240 279 -353 477 -424 744 -24 91 -24 320 0 409 52 191 176 354 321 422 158 74 384 92 571 44 454 -116 880 -581 1159 -1264 60 -147 248 -713 390 -1176 20 -66 52 -169 71 -230 18 -60 83 -279 143 -485 60 -206 142 -483 181 -615 40 -132 91 -305 115 -385 23 -80 66 -221 95 -315 28 -93 67 -219 85 -280 165 -539 364 -974 628 -1370 415 -622 950 -1047 1602 -1272 138 -48 339 -98 519 -130 133 -24 177 -27 361 -27 179 0 225 3 311 22 351 76 623 241 865 522 186 217 295 454 355 775 25 136 28 171 28 375 0 236 -15 361 -64 552 -163 634 -603 1237 -1182 1621 -117 78 -294 173 -408 220 -259 106 -611 204 -924 257 -466 80 -790 109 -1305 117 -345 6 -354 5 -346 -13 4 -10 24 -72 44 -136 l36 -118 62 0 c35 0 138 -7 230 -15 1386 -123 2278 -486 2709 -1100 119 -170 215 -417 260 -672 24 -137 22 -391 -6 -523 -88 -423 -352 -744 -712 -865 -139 -46 -235 -58 -458 -59 -195 -1 -243 3 -395 36 -494 106 -938 433 -1271 935 -126 190 -313 576 -374 773 -5 14 -29 84 -55 155 -72 200 -146 407 -155 435 -4 14 -36 104 -70 200 -122 346 -235 694 -324 1000 -55 189 -63 219 -202 760 -74 285 -90 346 -148 540 -111 375 -304 908 -425 1172 -15 35 -43 97 -61 138 -185 426 -393 708 -680 924 -259 194 -539 306 -880 351 -138 18 -408 18 -535 0z"/>
 <path d="M5075 6423 c-301 -10 -744 -57 -1015 -110 -540 -103 -951 -237 -1362 -443 -180 -90 -294 -163 -464 -296 -584 -457 -937 -1016 -1043 -1654 -71 -423 -15 -920 137 -1225 160 -321 426 -536 807 -651 325 -99 734 -105 1115 -17 664 152 1218 540 1697 1188 339 459 652 1128 820 1755 55 204 53 185 17 301 -17 57 -48 156 -68 219 -19 63 -45 148 -58 188 l-22 73 -17 -53 c-9 -29 -33 -107 -54 -173 -221 -719 -485 -1213 -942 -1760 -417 -500 -773 -738 -1233 -824 -159 -30 -446 -40 -570 -21 -167 27 -340 103 -464 205 -123 100 -241 299 -287 480 -31 125 -38 373 -14 518 76 463 311 847 719 1177 294 237 698 440 1172 589 256 80 666 173 929 211 44 6 108 16 143 21 97 15 360 39 429 39 l62 0 -46 135 -45 135 -131 -2 c-73 -1 -168 -3 -212 -5z"/>
 <path d="M6015 2469 c-140 -20 -241 -65 -352 -158 -185 -156 -277 -404 -232 -623 24 -121 123 -366 231 -578 176 -344 353 -546 461 -526 182 34 461 402 610 806 65 176 91 300 91 435 -1 103 -5 132 -28 203 -86 262 -237 395 -496 438 -93 15 -192 16 -285 3z"/>
 </g>

</svg>