<?xml version="1.0" encoding="utf-8"?>
<!-- Svg Vector Icons : http://www.onlinewebfonts.com/icon -->
<!DOCTYPE svg PUBLIC "-//W3C//DTD SVG 1.1//EN" "http://www.w3.org/Graphics/SVG/1.1/DTD/svg11.dtd">
<svg version="1.1" xmlns="http://www.w3.org/2000/svg" xmlns:xlink="http://www.w3.org/1999/xlink" x="0px" y="0px" viewBox="0 0 1000 1000" enable-background="new 0 0 1000 1000" xml:space="preserve">
<metadata> Svg Vector Icons : http://www.onlinewebfonts.com/icon </metadata>
<g><path d="M692.2,458.7c-32.3-30-56.1-59.3-66.9-111c-22.6-108.8,42.6-230,42.6-230s-174.5,20.9-199.4,244c-1.1,10-1.8,19.9-1.7,29.9c-2.6-0.1-5.2-0.2-7.9-0.2c-59.2,0-114.1,26-151.5,70.6c-13.4-4.4-27.5-6.7-41.7-6.7c-73.8,0-133.8,60-133.8,133.8c0,2.3,0.1,4.5,0.2,6.8C63,606.6,10,666.4,10,738.3c0,79.4,64.6,144.1,144.1,144.1H619c82.7,0,150-67.3,150-150c0-25-6.1-48.6-17-69.4c207.5-10.2,237.9-180,237.9-180S780.5,540.7,692.2,458.7z M619,822.7H154.1c-46.5,0-84.4-37.9-84.4-84.4c0-46.5,37.9-84.4,84.4-84.4c3.4,0,6.9,0.2,10.3,0.6l48.4,5.9L196,614.7c-3-8.1-4.5-16.7-4.5-25.5c0-40.9,33.3-74.2,74.2-74.2c12.9,0,25.7,3.4,36.8,9.8l24.7,14.1l15.3-24c25.5-40,69.1-63.9,116.5-63.9c76.1,0,138.1,61.9,138.1,138.1c0,6.3-0.4,12.8-1.3,19.1l-4.5,32.2l30,1.5c14.9,3.3,26,5.8,34.4,7.7c31.8,14.1,53.7,45.8,53.7,82.6C709.3,782.2,668.8,822.7,619,822.7z"/><path d="M316.7,332.9c0,0,0,0.1,0.1,0.1c0,0,0,0.1,0.1,0.1c0,0,0,0,0,0.1c0.8,1.3,2.1,2.3,3.8,2.5l42.8,6.5l30.6,30.6c1.2,1.2,2.8,1.7,4.3,1.5c0,0,0,0,0.1,0c0,0,0.1,0,0.1,0c0,0,0.1,0,0.1,0c0,0,0,0,0.1,0c1.5-0.3,2.9-1.3,3.6-2.8l19.3-38.6l38.4-19.6c1.5-0.7,2.5-2.1,2.8-3.6c0,0,0,0,0-0.1c0,0,0-0.1,0-0.1c0,0,0-0.1,0-0.1c0,0,0,0,0-0.1c0.2-1.5-0.3-3.1-1.6-4.3l-30.8-30.4l-6.7-42.5c-0.2-1.7-1.2-3-2.6-3.7c0,0,0,0-0.1,0c0,0-0.1,0-0.1-0.1c0,0-0.1,0-0.1-0.1c0,0,0,0-0.1,0c-1.4-0.6-3.1-0.6-4.6,0.2l-38.2,19.8l-42.8-6.8c-1.7-0.3-3.2,0.2-4.4,1.3c0,0,0,0,0,0c0,0-0.1,0.1-0.1,0.1c0,0-0.1,0.1-0.1,0.1c0,0,0,0,0,0c-1,1.1-1.5,2.7-1.3,4.4l7,42.5l-19.6,38.5C316,329.8,316,331.5,316.7,332.9C316.7,332.9,316.7,332.9,316.7,332.9z"/><path d="M669.8,366.5c-1,0.5-1.7,1.5-1.9,2.5c0,0,0,0,0,0c0,0,0,0.1,0,0.1c0,0,0,0.1,0,0.1c0,0,0,0,0,0c-0.1,1,0.3,2.1,1.1,2.9l21.1,20.3l5,28.9c0.2,1.1,0.9,2,1.8,2.5c0,0,0,0,0,0c0,0,0.1,0,0.1,0c0,0,0.1,0,0.1,0c0,0,0,0,0,0c0.9,0.4,2.1,0.4,3.1-0.1l25.9-13.9l29.1,4.2c1.1,0.2,2.2-0.2,3-0.9c0,0,0,0,0,0c0,0,0,0,0.1-0.1c0,0,0,0,0.1-0.1c0,0,0,0,0,0c0.7-0.8,1-1.9,0.8-3l-5.2-28.9L767,355c0.5-1,0.5-2.2,0-3.1c0,0,0,0,0,0c0,0,0-0.1,0-0.1c0,0,0-0.1,0-0.1c0,0,0,0,0,0c-0.5-0.9-1.5-1.6-2.6-1.7l-29.1-4l-21-20.4c-0.8-0.8-1.9-1.1-2.9-1c0,0,0,0,0,0c0,0-0.1,0-0.1,0c0,0-0.1,0-0.1,0c0,0,0,0,0,0c-1,0.2-1.9,0.9-2.4,1.9l-12.7,26.3L669.8,366.5z"/></g>
</svg>